# File created by Blade
# Date/Time:  Tue Sep 30 19:11:52 2014
#---------------------------------------------------------
:version 1.10
:name HOM
:units
  mass 1.0
  length 1.000000
  angle deg
:documentation
     Acclaim Skeleton File
:root
   axis xyz
   order TX TY TZ RX RY RZ
   position 0.000000 0.000000 0.000000
   orientation 0 0 0
:bonedata
   begin
      id 1
      name Spine_dum
      direction 0.000000 1.000000 0.000000
      length 7.508948
      axis 0.0 0.0 0.0 xyz
   end
   begin
      id 2
      name LeftUpLeg_dum
      direction 1.000000 0.000000 0.000000
      length 3.000560
      axis 0.0 0.0 0.0 xyz
   end
   begin
      id 3
      name RightUpLeg_dum
      direction -1.000000 0.000000 0.000000
      length 3.000560
      axis 0.0 0.0 0.0 xyz
   end
   begin
      id 4
      name Spine
      direction 0.000000 1.000000 0.000000
      length 0.000000
      axis 0.0 0.0 0.0 xyz
      dof rx ry rz
   end
   begin
      id 5
      name Spine_dum1
      direction 0.000000 1.000000 0.000000
      length 13.861154
      axis 0.0 0.0 0.0 xyz
   end
   begin
      id 6
      name Spine_dum2
      direction 0.000000 1.000000 0.000000
      length 8.204781
      axis 0.0 0.0 0.0 xyz
   end
   begin
      id 7
      name Spine_dum3
      direction 0.000000 1.000000 0.000000
      length 8.204781
      axis 0.0 0.0 0.0 xyz
   end
   begin
      id 8
      name Head
      direction 0.000000 1.000000 0.000000
      length 4.527550
      axis 0.0 0.0 0.0 xyz
      dof rx ry rz
   end
   begin
      id 9
      name LeftShoulder
      direction 1.000000 0.000000 0.000000
      length 6.635956
      axis 0.0 0.0 -90.0 xyz
      dof rx ry rz
   end
   begin
      id 10
      name LeftArm
      direction 1.000000 0.000000 0.000000
      length 10.274218
      axis 0.0 0.0 -90.0 xyz
      dof rx ry rz
   end
   begin
      id 11
      name LeftForeArm
      direction 1.000000 0.000000 0.000000
      length 8.522147
      axis 0.0 0.0 -90.0 xyz
      dof ry rz rx
   end
   begin
      id 12
      name LeftHand
      direction 0.000000 0.000000 0.000000
      length 0.000000
      axis 0.0 0.0 -90.0 xyz
      dof rx ry rz
   end
   begin
      id 13
      name LeftHand_dum1
      direction 0.000000 0.000000 0.000000
      length 0.000000
      axis 0.0 0.0 -90.0 xyz
   end
   begin
      id 14
      name LeftHand_dum2
      direction 1.000000 0.000000 0.000000
      length 3.937000
      axis 0.0 0.0 -90.0 xyz
   end
   begin
      id 15
      name LeftHandThumb1
      direction 0.000000 0.000000 1.000000
      length 3.937000
      axis 0.0 0.0 -90.0 xyz
      dof rx rz ry
   end
   begin
      id 16
      name RightShoulder
      direction -1.000000 0.000000 0.000000
      length 6.635956
      axis 0.0 0.0 90.0 xyz
      dof rx ry rz
   end
   begin
      id 17
      name RightArm
      direction -1.000000 0.000000 0.000000
      length 10.274218
      axis 0.0 0.0 90.0 xyz
      dof rx ry rz
   end
   begin
      id 18
      name RightForeArm
      direction -1.000000 0.000000 0.000000
      length 8.522147
      axis 0.0 0.0 90.0 xyz
      dof ry rz rx
   end
   begin
      id 19
      name RightHand
      direction 0.000000 0.000000 0.000000
      length 0.000000
      axis 0.0 0.0 90.0 xyz
      dof rx ry rz
   end
   begin
      id 20
      name RightHand_dum1
      direction 0.000000 0.000000 0.000000
      length 0.000000
      axis 0.0 0.0 90.0 xyz
   end
   begin
      id 21
      name RightHand_dum2
      direction -1.000000 0.000000 0.000000
      length 3.937000
      axis 0.0 0.0 90.0 xyz
   end
   begin
      id 22
      name RightHandThumb1
      direction 0.000000 0.000000 1.000000
      length 3.937000
      axis 0.0 0.0 90.0 xyz
      dof rx rz ry
   end
   begin
      id 23
      name LeftUpLeg
      direction 0.000000 -1.000000 0.000000
      length 16.490845
      axis 0.0 0.0 0.0 xyz
      dof rx ry rz
   end
   begin
      id 24
      name LeftLeg
      direction 0.000000 -1.000000 0.000000
      length 14.556576
      axis 0.0 0.0 0.0 xyz
      dof rx ry rz
   end
   begin
      id 25
      name LeftFoot
      direction 0.000000 -0.258819 0.965926
      length 4.831116
      axis 15.0 0.0 0.0 xyz
      dof rx ry rz
   end
   begin
      id 26
      name LeftToeBase
      direction 0.000000 0.000000 1.000000
      length 2.952750
      axis 0.0 0.0 0.0 xyz
      dof rx ry rz
   end
   begin
      id 27
      name RightUpLeg
      direction 0.000000 -1.000000 0.000000
      length 16.490845
      axis 0.0 0.0 0.0 xyz
      dof rx ry rz
   end
   begin
      id 28
      name RightLeg
      direction 0.000000 -1.000000 0.000000
      length 14.556576
      axis 0.0 0.0 0.0 xyz
      dof rx ry rz
   end
   begin
      id 29
      name RightFoot
      direction 0.000000 -0.258819 0.965926
      length 4.831116
      axis 15.0 0.0 0.0 xyz
      dof rx ry rz
   end
   begin
      id 30
      name RightToeBase
      direction 0.000000 0.000000 1.000000
      length 2.952750
      axis 0.0 0.0 0.0 xyz
      dof rx ry rz
   end
:hierarchy
   begin
      root Spine_dum LeftUpLeg_dum RightUpLeg_dum
      Spine_dum Spine
      LeftUpLeg_dum LeftUpLeg
      RightUpLeg_dum RightUpLeg
      Spine Spine_dum1 Spine_dum2 Spine_dum3
      Spine_dum1 Head
      Spine_dum2 LeftShoulder
      Spine_dum3 RightShoulder
      LeftShoulder LeftArm
      LeftArm LeftForeArm
      LeftForeArm LeftHand
      LeftHand LeftHand_dum1 LeftHand_dum2
      LeftHand_dum1 LeftHandThumb1
      RightShoulder RightArm
      RightArm RightForeArm
      RightForeArm RightHand
      RightHand RightHand_dum1 RightHand_dum2
      RightHand_dum1 RightHandThumb1
      LeftUpLeg LeftLeg
      LeftLeg LeftFoot
      LeftFoot LeftToeBase
      RightUpLeg RightLeg
      RightLeg RightFoot
      RightFoot RightToeBase
   end

# File created by Blade
# Date/Time:  Thu Sep 25 15:55:53 2014
# Frame Rate: 120.000 fps
#------------------------------------------------------
:FULLY-SPECIFIED
:DEGREES
126
root -4.844961 32.595970 -6.437627 11.873718 1.389495 -2.664529
Spine -8.316211 5.427346 3.222434
Head -13.634242 -7.659964 8.855032
LeftShoulder -10.760856 25.863409 15.372825
LeftArm 31.362902 16.437818 -59.013833
LeftForeArm 20.213409 -0.000000 53.860928
LeftHand -28.144017 -0.000000 5.701850
LeftHandThumb1 -26.253704 0.000000 33.147579
RightShoulder -16.345693 7.004014 -27.097716
RightArm -17.055546 -11.665195 78.401422
RightForeArm -29.024993 -0.000000 28.807310
RightHand -5.217354 -0.000000 -7.751273
RightHandThumb1 -24.326973 -0.000000 -32.862282
LeftUpLeg -2.014147 8.741747 2.315306
LeftLeg 21.851233 -0.000000 -0.000000
LeftFoot -20.805762 10.616311 -28.693187
LeftToeBase -10.214157 -0.000000 0.000000
RightUpLeg -21.724546 -2.288240 5.410264
RightLeg 16.477581 -0.000000 -0.000000
RightFoot -7.531374 -12.852424 -10.817681
RightToeBase -0.649723 -0.000000 0.000000
127
root -4.814129 32.573045 -6.528248 11.945331 1.448438 -2.782540
Spine -8.319206 5.205904 3.328945
Head -13.783667 -7.537499 8.974890
LeftShoulder -10.727196 25.844345 15.391413
LeftArm 31.662018 17.165024 -58.718163
LeftForeArm 20.061104 0.000000 53.815190
LeftHand -28.281980 -0.000000 5.930389
LeftHandThumb1 -26.253704 0.000000 33.147579
RightShoulder -16.387687 6.842606 -26.981121
RightArm -17.108964 -11.776605 78.759813
RightForeArm -28.949418 0.000000 28.475198
RightHand -5.141380 0.000000 -7.552621
RightHandThumb1 -24.326973 -0.000000 -32.862282
LeftUpLeg -1.380027 8.651915 2.277421
LeftLeg 19.974705 -0.000000 -0.000000
LeftFoot -21.105144 10.799245 -28.859610
LeftToeBase -9.694593 -0.000000 0.000000
RightUpLeg -22.170461 -2.161754 5.471571
RightLeg 16.905112 -0.000000 -0.000000
RightFoot -7.545137 -13.012279 -10.705743
RightToeBase -0.532770 -0.000000 0.000000
128
root -4.774237 32.549826 -6.622372 12.054267 1.529453 -2.863023
Spine -8.375708 4.960597 3.413589
Head -13.907591 -7.366972 9.080204
LeftShoulder -10.674489 25.818103 15.408502
LeftArm 31.893123 17.821527 -58.467886
LeftForeArm 20.062682 -0.000000 53.824620
LeftHand -28.314700 -0.000000 5.765452
LeftHandThumb1 -26.253704 0.000000 33.147579
RightShoulder -16.385145 6.731625 -26.838804
RightArm -17.225368 -11.822190 79.008910
RightForeArm -28.933287 -0.000000 28.162739
RightHand -5.112593 -0.000000 -7.208917
RightHandThumb1 -24.326973 -0.000000 -32.862282
LeftUpLeg -0.830902 8.449468 2.166003
LeftLeg 18.261654 -0.000000 -0.000000
LeftFoot -21.504803 11.137816 -29.009191
LeftToeBase -9.010490 -0.000000 0.000000
RightUpLeg -22.661691 -2.076045 5.482899
RightLeg 17.346210 -0.000000 -0.000000
RightFoot -7.569352 -13.185780 -10.648749
RightToeBase -0.399382 -0.000000 0.000000
129
root -4.750682 32.525815 -6.710706 12.096153 1.672290 -3.020715
Spine -8.352482 4.709446 3.541826
Head -14.046148 -7.217408 9.283487
LeftShoulder -10.542017 25.766425 15.506941
LeftArm 32.114900 18.390756 -58.253643
LeftForeArm 20.184414 0.000000 53.808385
LeftHand -28.282795 -0.000000 5.696175
LeftHandThumb1 -26.253704 0.000000 33.147579
RightShoulder -16.438107 6.629956 -26.669578
RightArm -17.334557 -11.909605 79.280747
RightForeArm -28.960945 -0.000000 27.791162
RightHand -5.197743 -0.000000 -7.272581
RightHandThumb1 -24.326973 -0.000000 -32.862282
LeftUpLeg -0.264447 8.435293 2.229452
LeftLeg 16.761549 -0.000000 -0.000000
LeftFoot -21.845761 11.095035 -29.596061
LeftToeBase -9.260238 -0.000000 0.000000
RightUpLeg -23.073720 -2.112523 5.619425
RightLeg 17.778784 -0.000000 -0.000000
RightFoot -7.543501 -13.291776 -10.691061
RightToeBase -0.451141 -0.000000 0.000000
130
root -4.713846 32.501543 -6.811262 12.180764 1.797390 -3.105656
Spine -8.333154 4.459498 3.624091
Head -14.209050 -7.124727 9.430609
LeftShoulder -10.475997 25.693399 15.526331
LeftArm 32.406982 18.984904 -57.936846
LeftForeArm 20.272084 0.000000 53.795774
LeftHand -28.540676 -0.000000 5.901135
LeftHandThumb1 -26.253704 0.000000 33.147579
RightShoulder -16.478675 6.586574 -26.552815
RightArm -17.492576 -11.978560 79.546764
RightForeArm -28.853642 0.000000 27.468868
RightHand -5.143083 -0.000000 -7.065067
RightHandThumb1 -24.326973 -0.000000 -32.862282
LeftUpLeg 0.179538 8.397952 2.179367
LeftLeg 15.408524 -0.000000 -0.000000
LeftFoot -22.207410 11.286945 -30.057207
LeftToeBase -9.276394 -0.000000 0.000000
RightUpLeg -23.520165 -1.893446 5.609643
RightLeg 18.158339 -0.000000 -0.000000
RightFoot -7.462457 -13.712139 -10.712929
RightToeBase -0.355796 -0.000000 0.000000
131
root -4.677065 32.476723 -6.917924 12.308544 1.907762 -3.204172
Spine -8.364579 4.259503 3.693456
Head -14.351664 -7.060806 9.633158
LeftShoulder -10.358324 25.669650 15.609158
LeftArm 32.736725 19.497722 -57.663137
LeftForeArm 20.388019 -0.000000 53.784758
LeftHand -28.558781 -0.000000 5.768350
LeftHandThumb1 -26.253704 0.000000 33.147579
RightShoulder -16.542483 6.530838 -26.429458
RightArm -17.636874 -12.105051 79.813536
RightForeArm -28.828334 -0.000000 27.125085
RightHand -5.254329 -0.000000 -6.898577
RightHandThumb1 -24.326973 -0.000000 -32.862282
LeftUpLeg 0.518830 8.459414 2.144367
LeftLeg 14.119316 -0.000000 -0.000000
LeftFoot -22.591626 11.434607 -30.179235
LeftToeBase -8.730460 -0.000000 0.000000
RightUpLeg -24.046760 -1.663058 5.596248
RightLeg 18.591730 -0.000000 -0.000000
RightFoot -7.392973 -14.032230 -10.659172
RightToeBase -0.301461 -0.000000 0.000000
132
root -4.641549 32.452401 -7.025971 12.422912 2.033467 -3.291464
Spine -8.366881 4.007750 3.761678
Head -14.528786 -6.939876 9.782238
LeftShoulder -10.274425 25.736218 15.611433
LeftArm 33.128879 19.881874 -57.286731
LeftForeArm 20.398341 -0.000000 53.838157
LeftHand -28.505667 0.000000 5.842009
LeftHandThumb1 -26.253704 0.000000 33.147579
RightShoulder -16.576545 6.462826 -26.321064
RightArm -17.725367 -12.220243 80.081203
RightForeArm -28.642504 0.000000 26.725322
RightHand -5.165962 0.000000 -6.844340
RightHandThumb1 -24.326973 -0.000000 -32.862282
LeftUpLeg 0.803846 8.744951 2.156079
LeftLeg 12.907351 -0.000000 -0.000000
LeftFoot -22.821617 11.331502 -30.202364
LeftToeBase -7.928100 -0.000000 0.000000
RightUpLeg -24.576530 -1.545476 5.594123
RightLeg 19.048581 -0.000000 -0.000000
RightFoot -7.351488 -14.229258 -10.578444
RightToeBase -0.272825 -0.000000 0.000000
133
root -4.612141 32.425956 -7.128786 12.509451 2.181445 -3.413385
Spine -8.357352 3.819447 3.855576
Head -14.638671 -6.854456 9.903554
LeftShoulder -10.160750 25.666475 15.661107
LeftArm 33.487078 20.347350 -56.885678
LeftForeArm 20.482205 -0.000000 53.842209
LeftHand -28.457087 0.000000 5.767650
LeftHandThumb1 -26.253704 0.000000 33.147579
RightShoulder -16.636452 6.376236 -26.242754
RightArm -17.901475 -12.218284 80.344456
RightForeArm -28.498043 0.000000 26.417898
RightHand -5.092502 -0.000000 -6.605649
RightHandThumb1 -24.326973 -0.000000 -32.862282
LeftUpLeg 1.095730 9.121784 2.247777
LeftLeg 11.790131 -0.000000 -0.000000
LeftFoot -22.973098 10.996525 -30.191375
LeftToeBase -7.333556 -0.000000 0.000000
RightUpLeg -25.093935 -1.504187 5.643275
RightLeg 19.558201 -0.000000 -0.000000
RightFoot -7.350148 -14.308066 -10.412603
RightToeBase -0.308118 -0.000000 0.000000
134
root -4.576546 32.398519 -7.238082 12.633495 2.289458 -3.509104
Spine -8.364492 3.653120 3.918910
Head -14.796027 -6.825098 10.120812
LeftShoulder -10.016634 25.622952 15.735382
LeftArm 33.768320 20.680818 -56.586565
LeftForeArm 20.690689 -0.000000 53.943854
LeftHand -28.284975 0.000000 5.138056
LeftHandThumb1 -26.253704 0.000000 33.147579
RightShoulder -16.680820 6.272984 -26.175571
RightArm -18.025968 -12.245180 80.623898
RightForeArm -28.322072 -0.000000 26.054525
RightHand -5.024405 0.000000 -6.667310
RightHandThumb1 -24.326973 -0.000000 -32.862282
LeftUpLeg 1.351583 9.502253 2.287178
LeftLeg 10.636692 -0.000000 -0.000000
LeftFoot -23.043633 10.715087 -29.946691
LeftToeBase -6.843732 -0.000000 0.000000
RightUpLeg -25.661503 -1.319447 5.621523
RightLeg 20.071197 -0.000000 -0.000000
RightFoot -7.313182 -14.515179 -10.265258
RightToeBase -0.263769 -0.000000 0.000000
135
root -4.541658 32.370371 -7.345286 12.753276 2.416094 -3.569694
Spine -8.399118 3.459547 3.935891
Head -14.857410 -6.766693 10.245972
LeftShoulder -9.866218 25.488500 15.823883
LeftArm 33.998474 21.065754 -56.253140
LeftForeArm 20.744786 -0.000000 54.031783
LeftHand -28.196765 -0.000000 4.771000
LeftHandThumb1 -26.253704 0.000000 33.147579
RightShoulder -16.685523 6.342841 -26.131168
RightArm -18.389163 -12.158503 80.889483
RightForeArm -28.240715 -0.000000 25.817565
RightHand -5.031619 -0.000000 -6.514565
RightHandThumb1 -24.326973 -0.000000 -32.862282
LeftUpLeg 1.608435 9.835885 2.317662
LeftLeg 9.510977 -0.000000 -0.000000
LeftFoot -23.055293 10.331630 -29.753583
LeftToeBase -6.248834 -0.000000 0.000000
RightUpLeg -26.235776 -1.170786 5.566369
RightLeg 20.621385 -0.000000 -0.000000
RightFoot -7.315432 -14.693611 -10.094073
RightToeBase -0.219467 -0.000000 0.000000
